<?xml version="1.0" encoding="iso-8859-1"?>
<!-- Generator: Adobe Illustrator 19.0.0, SVG Export Plug-In . SVG Version: 6.00 Build 0)  -->
<svg version="1.1" id="Capa_1" xmlns="http://www.w3.org/2000/svg" xmlns:xlink="http://www.w3.org/1999/xlink" x="0px" y="0px"
	 viewBox="0 0 512 512" style="enable-background:new 0 0 512 512;" xml:space="preserve">
<path style="fill:#303C42;" d="M405.333,64V53.333c0-5.896-4.771-10.667-10.667-10.667c-5.896,0-10.667,4.771-10.667,10.667V64
	h-21.333V42.667C362.667,19.135,343.531,0,320,0H192c-23.531,0-42.667,19.135-42.667,42.667V64H128V53.333
	c0-5.896-4.771-10.667-10.667-10.667s-10.667,4.771-10.667,10.667V64C83.135,64,64,83.135,64,106.667v192
	C64,314.392,72.642,328,85.333,335.4v101.934C85.333,443.229,90.104,448,96,448h42.667c5.896,0,10.667-4.771,10.667-10.667v-96
	h23.257l19.618,98.094c1,4.979,5.375,8.573,10.458,8.573h10.667v53.333c0,5.896,4.771,10.667,10.667,10.667h64
	c5.896,0,10.667-4.771,10.667-10.667V448h10.667c5.083,0,9.458-3.594,10.458-8.573l19.618-98.094h23.257v96
	c0,5.896,4.771,10.667,10.667,10.667H416c5.896,0,10.667-4.771,10.667-10.667V335.4C439.358,328,448,314.392,448,298.667v-192
	C448,83.135,428.865,64,405.333,64z"/>
<path style="fill:#F2F2F2;" d="M170.667,42.667c0-11.76,9.573-21.333,21.333-21.333h128c11.76,0,21.333,9.573,21.333,21.333V64
	H170.667V42.667z"/>
<rect x="106.667" y="341.333" style="fill:#0288D1;" width="21.333" height="85.333"/>
<rect x="234.667" y="448" style="fill:#5C6671;" width="42.667" height="42.667"/>
<linearGradient id="SVGID_1_" gradientUnits="userSpaceOnUse" x1="-35.2031" y1="625.9844" x2="-33.2031" y2="623.9844" gradientTransform="matrix(21.3333 0 0 -21.3333 996.3334 13791.667)">
	<stop  offset="0" style="stop-color:#000000;stop-opacity:0.1"/>
	<stop  offset="1" style="stop-color:#000000;stop-opacity:0"/>
</linearGradient>
<polygon style="fill:url(#SVGID_1_);" points="277.333,490.667 234.667,448 277.333,448 "/>
<g>
	<polygon style="fill:#0288D1;" points="300.594,426.667 211.406,426.667 194.344,341.333 317.656,341.333 	"/>
	<rect x="384" y="341.333" style="fill:#0288D1;" width="21.333" height="85.333"/>
</g>
<path style="fill:#1E88E5;" d="M426.667,298.667c0,11.76-9.573,21.333-21.333,21.333H106.667c-11.76,0-21.333-9.573-21.333-21.333
	v-192c0-11.76,9.573-21.333,21.333-21.333h298.667c11.76,0,21.333,9.573,21.333,21.333V298.667z"/>
<path style="opacity:0.1;enable-background:new    ;" d="M405.333,85.333h-10.667v181.333c0,11.76-9.573,21.333-21.333,21.333h-288
	v10.667c0,11.76,9.573,21.333,21.333,21.333h298.667c11.76,0,21.333-9.573,21.333-21.333v-192
	C426.667,94.906,417.094,85.333,405.333,85.333z"/>
<polygon style="opacity:0.1;enable-background:new    ;" points="198.609,362.667 313.391,362.667 317.656,341.333 194.344,341.333 
	"/>
<rect x="384" y="341.333" style="opacity:0.1;enable-background:new    ;" width="21.333" height="21.333"/>
<rect x="106.667" y="341.333" style="opacity:0.1;enable-background:new    ;" width="21.333" height="21.333"/>
<g>
	<path style="fill:#303C42;" d="M373.333,256H138.667c-5.896,0-10.667,4.771-10.667,10.667c0,5.896,4.771,10.667,10.667,10.667
		h234.667c5.896,0,10.667-4.771,10.667-10.667C384,260.771,379.229,256,373.333,256z"/>
	<path style="fill:#303C42;" d="M373.333,192H138.667c-5.896,0-10.667,4.771-10.667,10.667s4.771,10.667,10.667,10.667h234.667
		c5.896,0,10.667-4.771,10.667-10.667S379.229,192,373.333,192z"/>
	<path style="fill:#303C42;" d="M373.333,128H138.667c-5.896,0-10.667,4.771-10.667,10.667s4.771,10.667,10.667,10.667h234.667
		c5.896,0,10.667-4.771,10.667-10.667S379.229,128,373.333,128z"/>
</g>
<linearGradient id="SVGID_2_" gradientUnits="userSpaceOnUse" x1="-44.783" y1="639.6121" x2="-24.67" y2="630.2328" gradientTransform="matrix(21.3333 0 0 -21.3333 996.3334 13791.667)">
	<stop  offset="0" style="stop-color:#FFFFFF;stop-opacity:0.2"/>
	<stop  offset="1" style="stop-color:#FFFFFF;stop-opacity:0"/>
</linearGradient>
<path style="fill:url(#SVGID_2_);" d="M405.333,64V53.333c0-5.896-4.771-10.667-10.667-10.667c-5.896,0-10.667,4.771-10.667,10.667
	V64h-21.333V42.667C362.667,19.135,343.531,0,320,0H192c-23.531,0-42.667,19.135-42.667,42.667V64H128V53.333
	c0-5.896-4.771-10.667-10.667-10.667s-10.667,4.771-10.667,10.667V64C83.135,64,64,83.135,64,106.667v192
	C64,314.392,72.642,328,85.333,335.4v101.934C85.333,443.229,90.104,448,96,448h42.667c5.896,0,10.667-4.771,10.667-10.667v-96
	h23.257l19.618,98.094c1,4.979,5.375,8.573,10.458,8.573h10.667v53.333c0,5.896,4.771,10.667,10.667,10.667h64
	c5.896,0,10.667-4.771,10.667-10.667V448h10.667c5.083,0,9.458-3.594,10.458-8.573l19.618-98.094h23.257v96
	c0,5.896,4.771,10.667,10.667,10.667H416c5.896,0,10.667-4.771,10.667-10.667V335.4C439.358,328,448,314.392,448,298.667v-192
	C448,83.135,428.865,64,405.333,64z"/>
<g>
</g>
<g>
</g>
<g>
</g>
<g>
</g>
<g>
</g>
<g>
</g>
<g>
</g>
<g>
</g>
<g>
</g>
<g>
</g>
<g>
</g>
<g>
</g>
<g>
</g>
<g>
</g>
<g>
</g>
</svg>
