<?xml version="1.0" encoding="iso-8859-1"?>
<!-- Generator: Adobe Illustrator 19.0.0, SVG Export Plug-In . SVG Version: 6.00 Build 0)  -->
<svg version="1.1" id="Capa_1" xmlns="http://www.w3.org/2000/svg" xmlns:xlink="http://www.w3.org/1999/xlink" x="0px" y="0px"
	 viewBox="0 0 512.003 512.003" style="enable-background:new 0 0 512.003 512.003;" xml:space="preserve">
<path style="fill:#303C42;" d="M256.001,0c-141.156,0-256,114.844-256,256s114.844,256,256,256s256-114.844,256-256
	S397.158,0,256.001,0z M256.001,277.333c-11.783,0-21.333-9.552-21.333-21.333c0-11.783,9.551-21.333,21.333-21.333
	c11.783,0,21.333,9.551,21.333,21.333C277.335,267.781,267.784,277.333,256.001,277.333z"/>
<g>
	<g>
		<path id="SVGCleanerId_0" style="fill:#F2F2F2;" d="M256.001,21.333C126.606,21.333,21.335,126.604,21.335,256
			s105.271,234.667,234.667,234.667S490.668,385.396,490.668,256S385.397,21.333,256.001,21.333z M256.001,362.667
			c-58.813,0-106.667-47.854-106.667-106.667s47.854-106.667,106.667-106.667S362.668,197.188,362.668,256
			S314.814,362.667,256.001,362.667z M256.001,170.667c-47.052,0-85.333,38.281-85.333,85.333s38.281,85.333,85.333,85.333
			s85.333-38.281,85.333-85.333S303.054,170.667,256.001,170.667z M256.001,298.667c-23.564,0-42.667-19.103-42.667-42.667
			c0-23.565,19.103-42.667,42.667-42.667s42.667,19.102,42.667,42.667C298.668,279.564,279.565,298.667,256.001,298.667z"/>
	</g>
	<g>
		<path id="SVGCleanerId_0_1_" style="fill:#F2F2F2;" d="M256.001,21.333C126.606,21.333,21.335,126.604,21.335,256
			s105.271,234.667,234.667,234.667S490.668,385.396,490.668,256S385.397,21.333,256.001,21.333z M256.001,362.667
			c-58.813,0-106.667-47.854-106.667-106.667s47.854-106.667,106.667-106.667S362.668,197.188,362.668,256
			S314.814,362.667,256.001,362.667z M256.001,170.667c-47.052,0-85.333,38.281-85.333,85.333s38.281,85.333,85.333,85.333
			s85.333-38.281,85.333-85.333S303.054,170.667,256.001,170.667z M256.001,298.667c-23.564,0-42.667-19.103-42.667-42.667
			c0-23.565,19.103-42.667,42.667-42.667s42.667,19.102,42.667,42.667C298.668,279.564,279.565,298.667,256.001,298.667z"/>
	</g>
</g>
<g>
	<path style="opacity:0.64;fill:#FFFFFF;enable-background:new    ;" d="M47.969,147.823l113.84,59.197
		c5.059-9.681,11.147-18.75,18.805-26.408L90.145,90.143C73.281,107.007,59.103,126.499,47.969,147.823z M195.69,195.689
		c-6.126,6.126-10.997,13.38-15.044,21.126l37.665,19.586c2.022-3.878,4.457-7.508,7.521-10.57L195.69,195.689z"/>
	<path style="opacity:0.64;fill:#FFFFFF;enable-background:new    ;" d="M260.962,213.833c9.776,1.147,18.6,5.389,25.208,11.997
		l30.142-30.142c-13.22-13.22-30.868-21.719-50.391-24.018L260.962,213.833z M283.405,23.074l-15.003,127.513
		c24.401,2.874,46.461,13.499,62.987,30.025l90.469-90.469C385.464,53.749,337.158,29.365,283.405,23.074z"/>
	<path style="opacity:0.64;fill:#FFFFFF;enable-background:new    ;" d="M475.176,172.865l-119.734,45.417
		c4.482,11.768,7.227,24.397,7.227,37.719c0,17.747-4.772,34.242-12.474,48.98l113.84,59.197
		c16.922-32.409,26.634-69.155,26.634-108.177C490.668,226.698,485.03,198.75,475.176,172.865z M295.787,240.909
		c1.788,4.707,2.882,9.758,2.882,15.091c0,7.107-1.904,13.706-4.977,19.599l37.665,19.586c6.161-11.79,9.978-24.987,9.978-39.185
		c0-10.658-2.195-20.76-5.78-30.176L295.787,240.909z"/>
	<path style="opacity:0.64;fill:#FFFFFF;enable-background:new    ;" d="M90.145,421.857
		c36.395,36.395,84.701,60.777,138.453,67.069L243.6,361.413c-24.4-2.874-46.461-13.499-62.987-30.025L90.145,421.857z
		 M225.832,286.169l-30.142,30.142c13.22,13.22,30.87,21.719,50.391,24.018l4.96-42.163
		C241.266,297.02,232.44,292.777,225.832,286.169z"/>
	<path style="opacity:0.64;fill:#FFFFFF;enable-background:new    ;" d="M36.827,339.135c11.904,31.268,30.07,59.474,53.318,82.721
		l90.469-90.469c-10.565-10.565-18.641-23.461-24.052-37.669L36.827,339.135z M216.216,271.091l-39.768,15.085
		c4.329,11.367,10.79,21.684,19.242,30.135l30.142-30.142C221.606,281.943,218.378,276.783,216.216,271.091z"/>
</g>
<g>
	
		<radialGradient id="SVGCleanerId_0_3_" cx="-34.7017" cy="634.4859" r="11" gradientTransform="matrix(21.3333 0 0 -21.3333 996.3042 13791.6992)" gradientUnits="userSpaceOnUse">
		<stop  offset="0" style="stop-color:#8E24AA;stop-opacity:0.05"/>
		<stop  offset="0.146" style="stop-color:#A74BAB;stop-opacity:0.05"/>
		<stop  offset="0.349" style="stop-color:#C67BAD;stop-opacity:0.05"/>
		<stop  offset="0.543" style="stop-color:#DEA0AE;stop-opacity:0.05"/>
		<stop  offset="0.721" style="stop-color:#EFBBAF;stop-opacity:0.05"/>
		<stop  offset="0.879" style="stop-color:#F9CCB0;stop-opacity:0.05"/>
		<stop  offset="1" style="stop-color:#FDD1B0;stop-opacity:0.05"/>
	</radialGradient>
	<path id="SVGCleanerId_0_2_" style="fill:url(#SVGCleanerId_0_3_);" d="M256.001,21.333C126.606,21.333,21.335,126.604,21.335,256
		s105.271,234.667,234.667,234.667S490.668,385.396,490.668,256S385.397,21.333,256.001,21.333z M256.001,362.667
		c-58.813,0-106.667-47.854-106.667-106.667s47.854-106.667,106.667-106.667S362.668,197.188,362.668,256
		S314.814,362.667,256.001,362.667z M256.001,170.667c-47.052,0-85.333,38.281-85.333,85.333s38.281,85.333,85.333,85.333
		s85.333-38.281,85.333-85.333S303.054,170.667,256.001,170.667z M256.001,298.667c-23.564,0-42.667-19.103-42.667-42.667
		c0-23.565,19.103-42.667,42.667-42.667s42.667,19.102,42.667,42.667C298.668,279.564,279.565,298.667,256.001,298.667z"/>
</g>
<path style="fill:#303C42;" d="M416.001,512.003c52.938,0,96-40.156,96-89.51c0-2.604-0.188-5.031-0.542-9.323
	c-2.917-35.125-20.271-56.708-35.583-75.76c-12.938-16.083-24.104-29.979-24.104-49.406c0-3.927-2.167-7.531-5.604-9.396
	c-3.479-1.875-7.688-1.656-10.938,0.5c-23.292,15.375-42.75,41.427-49.604,66.375c-3.708,13.625-4.875,28.385-5.229,40.135
	c-11.063-7.073-13.938-24.156-14.083-25.063c-0.521-3.271-2.542-6.146-5.458-7.719c-2.938-1.563-6.396-1.76-9.438-0.365
	c-1.229,0.542-29.729,13.906-31.292,64.823c-0.125,1.729-0.125,3.469-0.125,5.198C320.001,471.847,363.064,512.003,416.001,512.003z
	"/>
<path style="fill:#FFCA28;" d="M350.793,381.711c-4.396,6.979-8.792,18.448-9.354,36.667c-0.104,1.646-0.104,2.885-0.104,4.115
	c0,37.594,33.5,68.177,74.667,68.177s74.667-30.583,74.667-68.177c0-2-0.167-3.844-0.313-5.698
	c-2.542-30.469-17.063-48.542-31.104-66.021c-10.375-12.896-21-26.104-25.958-42.833c-12.792,12.323-23,28.271-27.083,43.177
	c-4.646,17-4.646,37.281-4.646,48.188c0,5.896-4.771,10.667-10.667,10.667C369.939,409.972,357.397,395.784,350.793,381.711z"/>
<path style="opacity:0.2;fill:#FFFFFF;enable-background:new    ;" d="M490.356,416.794c-2.542-30.469-17.063-48.542-31.104-66.021
	c-10.375-12.896-21-26.104-25.958-42.833c-12.792,12.323-23,28.271-27.083,43.177c-4.646,17-4.646,37.281-4.646,48.188
	c0,5.896-4.771,10.667-10.667,10.667c-20.958,0-33.5-14.188-40.104-28.26c-4.396,6.979-8.792,18.448-9.354,36.667
	c-0.104,1.646-0.104,2.885-0.104,4.115c0,33.753,27.072,61.652,62.384,67.043c-27.779-5.206-48.74-27.702-48.74-54.583
	c0-1.005,0-2.018,0.086-3.363c0.46-14.889,4.052-24.262,7.645-29.966c5.397,11.501,15.647,23.096,32.775,23.096
	c4.819,0,8.717-3.9,8.717-8.717c0-8.913,0-25.488,3.797-39.382c3.337-12.182,11.68-25.216,22.134-35.286
	c4.052,13.672,12.736,24.466,21.215,35.005c11.475,14.285,23.342,29.055,25.419,53.956c0.12,1.516,0.257,3.022,0.257,4.658
	c0,26.882-20.961,49.378-48.74,54.583c35.313-5.391,62.384-33.29,62.384-67.043C490.668,420.492,490.501,418.648,490.356,416.794z"
	/>
<path style="fill:#FF6F00;" d="M381.743,433.426c-2.309,3.667-4.619,9.692-4.914,19.263c-0.055,0.865-0.055,1.516-0.055,2.162
	c0,19.751,17.6,35.818,39.227,35.818c21.628,0,39.227-16.067,39.227-35.818c0-1.051-0.088-2.019-0.164-2.993
	c-1.335-16.007-8.964-25.502-16.341-34.685c-5.451-6.775-11.033-13.714-13.638-22.503c-6.72,6.474-12.083,14.853-14.229,22.684
	c-2.441,8.931-2.441,19.586-2.441,25.316c0,3.097-2.506,5.604-5.604,5.604C391.802,448.273,385.213,440.82,381.743,433.426z"/>
<g>
</g>
<g>
</g>
<g>
</g>
<g>
</g>
<g>
</g>
<g>
</g>
<g>
</g>
<g>
</g>
<g>
</g>
<g>
</g>
<g>
</g>
<g>
</g>
<g>
</g>
<g>
</g>
<g>
</g>
</svg>
