<?xml version="1.0" encoding="iso-8859-1"?>
<!-- Generator: Adobe Illustrator 19.0.0, SVG Export Plug-In . SVG Version: 6.00 Build 0)  -->
<svg version="1.1" id="Capa_1" xmlns="http://www.w3.org/2000/svg" xmlns:xlink="http://www.w3.org/1999/xlink" x="0px" y="0px"
	 viewBox="0 0 469.333 469.333" style="enable-background:new 0 0 469.333 469.333;" xml:space="preserve">
<path style="fill:#303C42;" d="M426.667,0h-384C19.135,0,0,19.135,0,42.667v384c0,23.531,19.135,42.667,42.667,42.667h384
	c23.531,0,42.667-19.135,42.667-42.667v-384C469.333,19.135,450.198,0,426.667,0z"/>
<path style="fill:#546E7A;" d="M448,426.667c0,11.76-9.573,21.333-21.333,21.333h-384c-11.76,0-21.333-9.573-21.333-21.333v-384
	c0-11.76,9.573-21.333,21.333-21.333h384c11.76,0,21.333,9.573,21.333,21.333V426.667z"/>
<g>
	<circle style="fill:#303C42;" cx="64" cy="64" r="21.333"/>
	<circle style="fill:#303C42;" cx="405.333" cy="64" r="21.333"/>
	<circle style="fill:#303C42;" cx="64" cy="405.333" r="21.333"/>
	<path style="fill:#303C42;" d="M234.667,42.667c-105.865,0-192,86.135-192,192s86.135,192,192,192s192-86.135,192-192
		S340.531,42.667,234.667,42.667z"/>
</g>
<circle style="fill:#78909C;" cx="234.667" cy="234.667" r="170.667"/>
<path style="opacity:0.1;enable-background:new    ;" d="M96,266.667C96,172.563,172.563,96,266.667,96
	c38.905,0,74.695,13.232,103.434,35.233C338.884,90.46,289.866,64,234.667,64C140.563,64,64,140.563,64,234.667
	c0,55.199,26.46,104.217,67.233,135.434C109.232,341.362,96,305.572,96,266.667z"/>
<path style="fill:#303C42;" d="M326.406,116.99c-3.781-2.948-9.052-3.01-12.906-0.167c-27.564,20.397-44.874,44.03-54.023,58.855
	c-4.326-1.826-8.934-3.048-13.678-3.887c-0.064-0.35-0.107-0.663-0.173-1.021c-2.115-11.396-6.51-35.094,5.948-70.927
	c1.104-3.167-0.396-6.74-2.271-9.521c-1.885-2.792-6.01-4.594-9.365-4.76c-20.49-1.354-41.729,2.802-61.333,10.75
	c-4.438,1.802-7.125,6.333-6.583,11.083c3.888,34.267,15.811,61.208,24.09,76.523c-3.786,2.885-7.18,6.185-10.24,9.827
	c-0.354-0.122-0.677-0.249-1.038-0.371c-10.948-3.708-33.719-11.448-58.708-40.5c-2.208-2.563-5.5-3.833-8.823-3.688
	c-3.365,0.24-6.417,2.042-8.229,4.875c-11.719,18.229-19.177,38.417-22.167,60.021c-0.656,4.74,1.927,9.333,6.313,11.24
	c31.555,13.71,60.871,16.883,78.26,17.379c0.611,4.794,1.669,9.418,3.283,13.823c-0.257,0.225-0.501,0.423-0.762,0.652
	c-8.698,7.625-26.781,23.49-64.458,30.594c-3.313,0.625-6.135,2.781-7.615,5.813c-1.469,3.031-1.427,6.583,0.125,9.573
	c9.823,18.958,23.958,35.969,40.875,49.188c1.927,1.5,4.24,2.26,6.563,2.26c2.229,0,4.458-0.698,6.344-2.094
	c27.565-20.398,44.876-44.031,54.025-58.857c4.326,1.826,8.932,3.049,13.677,3.888c0.064,0.35,0.107,0.663,0.173,1.021
	c2.115,11.396,6.51,35.094-5.948,70.927c-1.104,3.167,0.396,6.74,2.271,9.521c1.885,2.792,6.01,4.594,9.365,4.76
	c1.74,0.115,3.49,0.229,5.271,0.229c19.26,0,38.125-3.698,56.063-10.979c4.438-1.802,7.125-6.333,6.583-11.083
	c-3.888-34.267-15.811-61.208-24.09-76.523c3.786-2.885,7.18-6.185,10.24-9.827c0.354,0.122,0.677,0.249,1.038,0.371
	c10.948,3.708,33.719,11.448,58.708,40.5c2.031,2.365,4.99,3.708,8.083,3.708c0.25,0,0.49-0.01,0.74-0.021
	c3.365-0.24,6.417-2.042,8.229-4.875c11.719-18.229,19.177-38.417,22.167-60.021c0.656-4.74-1.927-9.333-6.313-11.24
	c-31.646-13.758-60.909-16.849-78.257-17.342c-0.608-4.807-1.668-9.444-3.285-13.861c0.255-0.224,0.501-0.423,0.76-0.651
	c8.698-7.625,26.781-23.49,64.458-30.594c3.313-0.625,6.135-2.781,7.615-5.813c1.469-3.021,1.427-6.573-0.125-9.573
	C357.333,146.948,343.573,130.406,326.406,116.99z"/>
<circle style="fill:#78909C;" cx="234.667" cy="234.667" r="21.333"/>
<path style="opacity:0.1;enable-background:new    ;" d="M224,245.333c0-11.783,9.551-21.333,21.333-21.333
	c3.124,0,6.042,0.746,8.715,1.952c-3.344-7.411-10.723-12.618-19.382-12.618c-11.783,0-21.333,9.551-21.333,21.333
	c0,8.658,5.207,16.036,12.618,19.38C224.746,251.374,224,248.457,224,245.333z"/>
<circle style="fill:#303C42;" cx="405.333" cy="405.333" r="21.333"/>
<linearGradient id="SVGID_1_" gradientUnits="userSpaceOnUse" x1="-68.6888" y1="619.0512" x2="-43.3842" y2="607.2509" gradientTransform="matrix(21.3333 0 0 -21.3333 1430.1112 13315.2227)">
	<stop  offset="0" style="stop-color:#FFFFFF;stop-opacity:0.2"/>
	<stop  offset="1" style="stop-color:#FFFFFF;stop-opacity:0"/>
</linearGradient>
<path style="fill:url(#SVGID_1_);" d="M426.667,0h-384C19.135,0,0,19.135,0,42.667v384c0,23.531,19.135,42.667,42.667,42.667h384
	c23.531,0,42.667-19.135,42.667-42.667v-384C469.333,19.135,450.198,0,426.667,0z"/>
<g>
</g>
<g>
</g>
<g>
</g>
<g>
</g>
<g>
</g>
<g>
</g>
<g>
</g>
<g>
</g>
<g>
</g>
<g>
</g>
<g>
</g>
<g>
</g>
<g>
</g>
<g>
</g>
<g>
</g>
</svg>
