<?xml version="1.0" encoding="iso-8859-1"?>
<!-- Generator: Adobe Illustrator 19.0.0, SVG Export Plug-In . SVG Version: 6.00 Build 0)  -->
<svg version="1.1" id="Capa_1" xmlns="http://www.w3.org/2000/svg" xmlns:xlink="http://www.w3.org/1999/xlink" x="0px" y="0px"
	 viewBox="0 0 469.333 469.333" style="enable-background:new 0 0 469.333 469.333;" xml:space="preserve">
<path style="fill:#303C42;" d="M458.667,106.667c5.896,0,10.667-4.771,10.667-10.667V42.667C469.333,19.135,450.198,0,426.667,0
	h-53.333c-5.896,0-10.667,4.771-10.667,10.667c0,5.885-4.781,10.667-10.667,10.667c-5.885,0-10.667-4.781-10.667-10.667
	C341.333,4.771,336.563,0,330.667,0h-288C19.135,0,0,19.135,0,42.667V96c0,5.896,4.771,10.667,10.667,10.667
	c5.885,0,10.667,4.781,10.667,10.667S16.552,128,10.667,128C4.771,128,0,132.771,0,138.667v288
	c0,23.531,19.135,42.667,42.667,42.667h384c23.531,0,42.667-19.135,42.667-42.667v-288c0-5.896-4.771-10.667-10.667-10.667
	c-5.885,0-10.667-4.781-10.667-10.667S452.781,106.667,458.667,106.667z"/>
<path id="SVGCleanerId_0" style="fill:#7CB342;" d="M448,87.156c-12.417,4.406-21.333,16.271-21.333,30.177
	s8.917,25.771,21.333,30.177v279.156c0,11.76-9.573,21.333-21.333,21.333h-384c-11.76,0-21.333-9.573-21.333-21.333V147.51
	c12.417-4.406,21.333-16.271,21.333-30.177S33.75,91.563,21.333,87.156v-44.49c0-11.76,9.573-21.333,21.333-21.333h279.156
	C326.229,33.75,338.094,42.667,352,42.667s25.771-8.917,30.177-21.333h44.49c11.76,0,21.333,9.573,21.333,21.333V87.156z"/>
<g>
	<path id="SVGCleanerId_0_1_" style="fill:#7CB342;" d="M448,87.156c-12.417,4.406-21.333,16.271-21.333,30.177
		s8.917,25.771,21.333,30.177v279.156c0,11.76-9.573,21.333-21.333,21.333h-384c-11.76,0-21.333-9.573-21.333-21.333V147.51
		c12.417-4.406,21.333-16.271,21.333-30.177S33.75,91.563,21.333,87.156v-44.49c0-11.76,9.573-21.333,21.333-21.333h279.156
		C326.229,33.75,338.094,42.667,352,42.667s25.771-8.917,30.177-21.333h44.49c11.76,0,21.333,9.573,21.333,21.333V87.156z"/>
</g>
<path style="fill:#303C42;" d="M338.208,67.125c-2-2-4.708-3.125-7.542-3.125h-256C68.771,64,64,68.771,64,74.667v320
	c0,5.896,4.771,10.667,10.667,10.667h320c5.896,0,10.667-4.771,10.667-10.667v-256c0-2.833-1.125-5.542-3.125-7.542L338.208,67.125z
	"/>
<polygon style="fill:#F2F2F2;" points="384,384 85.333,384 85.333,85.333 326.25,85.333 384,143.083 "/>
<path style="opacity:0.1;enable-background:new    ;" d="M330.667,89.75v184.917c0,30.927-25.072,56-56,56H85.333V384H384V143.083
	L330.667,89.75z"/>
<polygon style="opacity:0.2;fill:#FFFFFF;enable-background:new    ;" points="94.667,95.555 335.583,95.555 384,143.971 
	384,143.083 326.25,85.333 85.333,85.333 85.333,384 94.667,384 "/>
<g>
	<path style="fill:#303C42;" d="M149.333,202.667c5.885,0,10.667,4.781,10.667,10.667c0,5.896,4.771,10.667,10.667,10.667
		s10.667-4.771,10.667-10.667c0-17.646-14.354-32-32-32s-32,14.354-32,32V256c0,17.646,14.354,32,32,32s32-14.354,32-32
		c0-5.896-4.771-10.667-10.667-10.667S160,250.104,160,256c0,5.885-4.781,10.667-10.667,10.667c-5.885,0-10.667-4.781-10.667-10.667
		v-42.667C138.667,207.448,143.448,202.667,149.333,202.667z"/>
	<path style="fill:#303C42;" d="M234.667,181.333h-21.333c-5.896,0-10.667,4.771-10.667,10.667v85.333
		c0,5.896,4.771,10.667,10.667,10.667c5.896,0,10.667-4.771,10.667-10.667v-32h10.667c17.646,0,32-14.354,32-32
		S252.313,181.333,234.667,181.333z M234.667,224H224v-21.333h10.667c5.885,0,10.667,4.781,10.667,10.667
		C245.333,219.219,240.552,224,234.667,224z"/>
	<path style="fill:#303C42;" d="M309.333,256v-64c0-5.896-4.771-10.667-10.667-10.667c-5.896,0-10.667,4.771-10.667,10.667v64
		c0,17.646,14.354,32,32,32c17.646,0,32-14.354,32-32v-64c0-5.896-4.771-10.667-10.667-10.667s-10.667,4.771-10.667,10.667v64
		c0,5.885-4.781,10.667-10.667,10.667C314.115,266.667,309.333,261.885,309.333,256z"/>
</g>
<linearGradient id="SVGID_1_" gradientUnits="userSpaceOnUse" x1="-68.6888" y1="619.0512" x2="-43.3842" y2="607.2509" gradientTransform="matrix(21.3333 0 0 -21.3333 1430.1112 13315.2227)">
	<stop  offset="0" style="stop-color:#FFFFFF;stop-opacity:0.2"/>
	<stop  offset="1" style="stop-color:#FFFFFF;stop-opacity:0"/>
</linearGradient>
<path style="fill:url(#SVGID_1_);" d="M458.667,106.667c5.896,0,10.667-4.771,10.667-10.667V42.667
	C469.333,19.135,450.198,0,426.667,0h-53.333c-5.896,0-10.667,4.771-10.667,10.667c0,5.885-4.781,10.667-10.667,10.667
	c-5.885,0-10.667-4.781-10.667-10.667C341.333,4.771,336.563,0,330.667,0h-288C19.135,0,0,19.135,0,42.667V96
	c0,5.896,4.771,10.667,10.667,10.667c5.885,0,10.667,4.781,10.667,10.667S16.552,128,10.667,128C4.771,128,0,132.771,0,138.667v288
	c0,23.531,19.135,42.667,42.667,42.667h384c23.531,0,42.667-19.135,42.667-42.667v-288c0-5.896-4.771-10.667-10.667-10.667
	c-5.885,0-10.667-4.781-10.667-10.667S452.781,106.667,458.667,106.667z"/>
<g>
</g>
<g>
</g>
<g>
</g>
<g>
</g>
<g>
</g>
<g>
</g>
<g>
</g>
<g>
</g>
<g>
</g>
<g>
</g>
<g>
</g>
<g>
</g>
<g>
</g>
<g>
</g>
<g>
</g>
</svg>
