<?xml version="1.0" encoding="iso-8859-1"?>
<!-- Generator: Adobe Illustrator 19.0.0, SVG Export Plug-In . SVG Version: 6.00 Build 0)  -->
<svg version="1.1" id="Capa_1" xmlns="http://www.w3.org/2000/svg" xmlns:xlink="http://www.w3.org/1999/xlink" x="0px" y="0px"
	 viewBox="0 0 469.333 469.333" style="enable-background:new 0 0 469.333 469.333;" xml:space="preserve">
<path style="fill:#303C42;" d="M466.208,88.458L380.875,3.125c-2-2-4.708-3.125-7.542-3.125H42.667C19.146,0,0,19.135,0,42.667v384
	c0,23.531,19.146,42.667,42.667,42.667h384c23.521,0,42.667-19.135,42.667-42.667V96C469.333,93.167,468.208,90.458,466.208,88.458z
	"/>
<g>
	<path style="fill:#F2F2F2;" d="M106.667,21.333h234.667v128c0,11.76-9.563,21.333-21.333,21.333H128
		c-11.771,0-21.333-9.573-21.333-21.333V21.333z"/>
	<rect x="85.333" y="256" style="fill:#F2F2F2;" width="298.667" height="192"/>
</g>
<rect x="85.333" y="256" style="fill:#35A0DA;" width="298.667" height="42.667"/>
<path style="fill:#4FC3F7;" d="M448,426.667c0,11.76-9.563,21.333-21.333,21.333h-21.333V245.333
	c0-5.896-4.771-10.667-10.667-10.667h-320c-5.896,0-10.667,4.771-10.667,10.667V448H42.667c-11.771,0-21.333-9.573-21.333-21.333
	v-384c0-11.76,9.563-21.333,21.333-21.333h42.667v128C85.333,172.865,104.479,192,128,192h192c23.521,0,42.667-19.135,42.667-42.667
	v-128h6.25L448,100.417V426.667z"/>
<path style="fill:#303C42;" d="M266.667,149.333h42.667c5.896,0,10.667-4.771,10.667-10.667V53.333
	c0-5.896-4.771-10.667-10.667-10.667h-42.667c-5.896,0-10.667,4.771-10.667,10.667v85.333
	C256,144.563,260.771,149.333,266.667,149.333z"/>
<rect x="277.333" y="64" style="fill:#4FC3F7;" width="21.333" height="64"/>
<linearGradient id="SVGID_1_" gradientUnits="userSpaceOnUse" x1="-68.9417" y1="618.5083" x2="-43.6371" y2="606.709" gradientTransform="matrix(21.3333 0 0 -21.3333 1430.1112 13315.2227)">
	<stop  offset="0" style="stop-color:#FFFFFF;stop-opacity:0.2"/>
	<stop  offset="1" style="stop-color:#FFFFFF;stop-opacity:0"/>
</linearGradient>
<path style="fill:url(#SVGID_1_);" d="M466.208,88.458L380.875,3.125c-2-2-4.708-3.125-7.542-3.125H42.667
	C19.146,0,0,19.135,0,42.667v384c0,23.531,19.146,42.667,42.667,42.667h384c23.521,0,42.667-19.135,42.667-42.667V96
	C469.333,93.167,468.208,90.458,466.208,88.458z"/>
<g>
</g>
<g>
</g>
<g>
</g>
<g>
</g>
<g>
</g>
<g>
</g>
<g>
</g>
<g>
</g>
<g>
</g>
<g>
</g>
<g>
</g>
<g>
</g>
<g>
</g>
<g>
</g>
<g>
</g>
</svg>
