<?xml version="1.0" encoding="iso-8859-1"?>
<!-- Generator: Adobe Illustrator 19.0.0, SVG Export Plug-In . SVG Version: 6.00 Build 0)  -->
<svg version="1.1" id="Capa_1" xmlns="http://www.w3.org/2000/svg" xmlns:xlink="http://www.w3.org/1999/xlink" x="0px" y="0px"
	 viewBox="0 0 512 512" style="enable-background:new 0 0 512 512;" xml:space="preserve">
<path style="fill:#303C42;" d="M405.333,0H106.667C83.146,0,64,19.135,64,42.667v426.667C64,492.865,83.146,512,106.667,512h298.667
	C428.854,512,448,492.865,448,469.333V42.667C448,19.135,428.854,0,405.333,0z"/>
<path style="fill:#546E7A;" d="M426.667,469.333c0,11.76-9.563,21.333-21.333,21.333H106.667c-11.771,0-21.333-9.573-21.333-21.333
	V42.667c0-11.76,9.563-21.333,21.333-21.333h298.667c11.771,0,21.333,9.573,21.333,21.333V469.333z"/>
<path style="fill:#303C42;" d="M256,64c-82.333,0-149.333,66.99-149.333,149.333c0,82.155,66.701,148.999,148.776,149.305
	c9.9,22.931,19.691,45.771,24.995,58.602c2.313,5.552,5.479,10.354,9.396,14.26c8.313,8.323,19.25,12.479,30.167,12.479
	c10.917,0,21.854-4.156,30.167-12.479c8.063-8.052,12.5-18.771,12.5-30.167s-4.438-22.115-13-30.646l-30.302-26.583
	c51.957-24.366,85.969-76.318,85.969-134.771C405.333,130.99,338.333,64,256,64z"/>
<path style="fill:#D32F2F;" d="M341.333,405.333c0,5.698-2.229,11.052-6.25,15.083c-8.333,8.313-21.854,8.323-30.188-0.01
	c-1.958-1.958-3.5-4.365-4.75-7.333c-7.438-17.99-23.667-55.594-36.708-85.646l71.646,62.823
	C339.104,394.281,341.333,399.635,341.333,405.333z"/>
<path style="fill:#E6E6E6;" d="M301.594,332.514l-59.885-52.535c-3.792-3.292-9.313-3.521-13.333-0.594
	c-4.042,2.948-5.479,8.302-3.479,12.885c0,0,9.621,22.043,21.112,48.557C180.091,335.701,128,280.544,128,213.333
	c0-70.583,57.417-128,128-128s128,57.417,128,128C384,266.622,351.02,313.62,301.594,332.514z"/>
<circle style="fill:#303C42;" cx="256" cy="213.333" r="64"/>
<circle style="fill:#CCCCCC;" cx="256" cy="213.333" r="42.667"/>
<circle style="fill:#303C42;" cx="149.333" cy="426.667" r="21.333"/>
<g>
	<path style="opacity:0.3;fill:#FFFFFF;enable-background:new    ;" d="M244.223,150.523l-11.797-62.921
		c-16.53,3.092-31.922,9.372-45.569,18.176l34.608,53.833C228.286,155.212,235.96,152.07,244.223,150.523z"/>
	<path style="opacity:0.3;fill:#FFFFFF;enable-background:new    ;" d="M274.999,152.538l19.182-61.382
		c-5.173-1.62-10.526-2.802-15.957-3.759l-11.128,63.057C269.819,150.934,272.405,151.724,274.999,152.538z"/>
</g>
<linearGradient id="SVGID_1_" gradientUnits="userSpaceOnUse" x1="-34.448" y1="636.3647" x2="-24.429" y2="626.3447" gradientTransform="matrix(21.3333 0 0 -21.3333 996.3334 13791.667)">
	<stop  offset="0" style="stop-color:#000000;stop-opacity:0.1"/>
	<stop  offset="1" style="stop-color:#000000;stop-opacity:0"/>
</linearGradient>
<path style="fill:url(#SVGID_1_);" d="M365.417,111.922l-0.055,0.068c24.719,26.655,39.971,62.21,39.971,101.344
	c0,58.453-34.012,110.405-85.969,134.771l30.302,26.583c8.563,8.531,13,19.25,13,30.646s-4.438,22.115-12.5,30.167
	c-8.313,8.323-19.25,12.479-30.167,12.479c-10.917,0-21.854-4.156-30.167-12.479c-3.917-3.906-7.083-8.708-9.396-14.26
	c-5.303-12.831-15.095-35.671-24.995-58.602c-28.177-0.105-54.445-8.195-76.922-21.913l-0.085,0.103l149.839,149.839h77.059
	c11.771,0,21.333-9.573,21.333-21.333V173.172L365.417,111.922z"/>
<g>
	<path style="opacity:0.3;fill:#FFFFFF;enable-background:new    ;" d="M320,213.333c0,0.38-0.105,0.73-0.112,1.108l63.754-8.173
		c-2.141-38.921-21.676-73.189-51.022-95.228l-39.142,50.655C309.474,173.34,320,192.076,320,213.333z"/>
	<path style="opacity:0.3;fill:#FFFFFF;enable-background:new    ;" d="M194.635,230.5l-64.068,8.214
		c6.068,29.996,22.714,56.122,45.809,74.526l39.186-50.712C205.594,254.318,198.217,243.264,194.635,230.5z"/>
</g>
<linearGradient id="SVGID_2_" gradientUnits="userSpaceOnUse" x1="-46.0956" y1="639.7964" x2="-23.3106" y2="629.1724" gradientTransform="matrix(21.3333 0 0 -21.3333 996.3334 13791.667)">
	<stop  offset="0" style="stop-color:#FFFFFF;stop-opacity:0.2"/>
	<stop  offset="1" style="stop-color:#FFFFFF;stop-opacity:0"/>
</linearGradient>
<path style="fill:url(#SVGID_2_);" d="M405.333,0H106.667C83.146,0,64,19.135,64,42.667v426.667C64,492.865,83.146,512,106.667,512
	h298.667C428.854,512,448,492.865,448,469.333V42.667C448,19.135,428.854,0,405.333,0z"/>
<g>
</g>
<g>
</g>
<g>
</g>
<g>
</g>
<g>
</g>
<g>
</g>
<g>
</g>
<g>
</g>
<g>
</g>
<g>
</g>
<g>
</g>
<g>
</g>
<g>
</g>
<g>
</g>
<g>
</g>
</svg>
