<?xml version="1.0" encoding="iso-8859-1"?>
<!-- Generator: Adobe Illustrator 19.0.0, SVG Export Plug-In . SVG Version: 6.00 Build 0)  -->
<svg version="1.1" id="Capa_1" xmlns="http://www.w3.org/2000/svg" xmlns:xlink="http://www.w3.org/1999/xlink" x="0px" y="0px"
	 viewBox="0 0 469.333 469.333" style="enable-background:new 0 0 469.333 469.333;" xml:space="preserve">
<path style="fill:#303C42;" d="M466.208,131.125l-128-128c-4.167-4.167-10.917-4.167-15.083,0l-88.458,88.458l-3.125-3.125
	c-4.167-4.167-10.917-4.167-15.083,0L33.292,271.625C11.833,293.094,0,321.635,0,352c0,64.698,52.646,117.333,117.333,117.333
	c29.917,0,59.229-12.135,80.375-33.292l183.167-183.167c4.167-4.167,4.167-10.917,0-15.083l-3.125-3.125l88.458-88.458
	C470.375,142.042,470.375,135.292,466.208,131.125z"/>
<path style="fill:#5C6671;" d="M182.625,420.958C165.438,438.146,141.646,448,117.333,448c-52.938,0-96-43.063-96-96
	c0-24.667,9.604-47.854,27.042-65.292L224,111.083l134.25,134.25L182.625,420.958z"/>
<path style="opacity:0.1;enable-background:new    ;" d="M187.042,363.208c-17.188,17.188-40.979,27.042-65.292,27.042
	c-45.341,0-83.22-31.682-93.219-74.012c-4.697,11.178-7.198,23.271-7.198,35.762c0,52.938,43.063,96,96,96
	c24.313,0,48.104-9.854,65.292-27.042L358.25,245.333l-26.667-26.667L187.042,363.208z"/>
<rect x="289.48" y="42.871" transform="matrix(-0.7071 0.7071 -0.7071 -0.7071 678.6186 -35.6695)" style="fill:#D6DEE1;" width="114.433" height="159.681"/>
<polygon style="opacity:0.2;fill:#FFFFFF;enable-background:new    ;" points="360.453,55.537 330.667,25.75 249.75,106.667 
	279.318,136.234 "/>
<polygon style="opacity:0.1;enable-background:new    ;" points="416.79,111.873 335.641,192.558 362.667,219.583 443.583,138.667 
	"/>
<g>
	<path style="fill:#303C42;" d="M290.979,99.281c-4.021,4.188-3.958,10.823,0.146,14.927l10.667,10.667
		c2.083,2.083,4.813,3.125,7.542,3.125s5.458-1.042,7.542-3.125l32-32c4.167-4.167,4.167-10.917,0-15.083l-10.667-10.667
		c-1.021-1.021-2.25-1.854-3.583-2.385C327.125,61.708,327.125,61.625,290.979,99.281z"/>
	<path style="fill:#303C42;" d="M344.479,167.563l10.667,10.667c2.083,2.083,4.813,3.125,7.542,3.125
		c2.729,0,5.458-1.042,7.542-3.125l32-32c4.167-4.167,4.167-10.917,0-15.083l-10.667-10.667c-1.021-1.021-2.25-1.854-3.583-2.385
		c-7.479-3.031-7.5-3.115-43.646,34.542C340.313,156.823,340.375,163.458,344.479,167.563z"/>
	<path style="fill:#303C42;" d="M248.688,266.198c-4.167-4.167-10.917-4.156-15.083-0.01L218.5,281.271
		c-2,2-3.125,4.719-3.125,7.552c0,2.833,1.125,5.552,3.125,7.552l0.005,0.005l-5.755,5.755c-2.896,2.885-7.083,3.844-10.917,2.573
		l-16.371-5.457l48.137-48.132l0.005,0.005c2.021,2.021,4.75,3.115,7.542,3.115c0.813,0,1.646-0.094,2.458-0.281
		c3.583-0.854,6.5-3.51,7.667-7.01l7.542-22.625c1.271-3.833,0.271-8.063-2.583-10.917c-2.833-2.844-7.063-3.844-10.917-2.583
		l-22.646,7.542c-3.5,1.177-6.167,4.073-7,7.677c-0.854,3.604,0.229,7.385,2.833,10l0.005,0.005l-63.211,63.204l-5.461-16.387
		c-1.292-3.844-0.313-8.021,2.583-10.906l8.072-8.078c1.73,0.44,3.445,1.016,5.22,1.016c5.458,0,10.917-2.083,15.083-6.24
		c8.313-8.313,8.313-21.854,0-30.167c-8.333-8.313-21.833-8.313-30.167,0c-5.508,5.508-7.012,13.249-5.221,20.305l-8.07,8.07
		c-8.646,8.635-11.604,21.188-7.75,32.76l8.833,26.501l-5.195,5.195c-7.052-1.792-14.783-0.288-20.305,5.22
		c-8.313,8.313-8.313,21.854,0,30.167c4.167,4.156,9.625,6.24,15.083,6.24c5.458,0,10.917-2.083,15.083-6.24
		c5.507-5.507,7.012-13.249,5.221-20.305l20.297-20.293l26.482,8.827c3.354,1.125,6.792,1.677,10.208,1.677
		c8.313,0,16.417-3.271,22.542-9.396l5.766-5.766l0.005,0.005c2.083,2.073,4.813,3.115,7.542,3.115c2.729,0,5.458-1.042,7.542-3.125
		l15.083-15.083c4.167-4.167,4.167-10.917,0-15.083L248.688,266.198z"/>
</g>
<linearGradient id="SVGID_1_" gradientUnits="userSpaceOnUse" x1="-63.6094" y1="616.1901" x2="-48.8688" y2="609.3187" gradientTransform="matrix(21.3333 0 0 -21.3333 1430.1112 13315.2227)">
	<stop  offset="0" style="stop-color:#FFFFFF;stop-opacity:0.2"/>
	<stop  offset="1" style="stop-color:#FFFFFF;stop-opacity:0"/>
</linearGradient>
<path style="fill:url(#SVGID_1_);" d="M466.208,131.125l-128-128c-4.167-4.167-10.917-4.167-15.083,0l-88.458,88.458l-3.125-3.125
	c-4.167-4.167-10.917-4.167-15.083,0L33.292,271.625C11.833,293.094,0,321.635,0,352c0,64.698,52.646,117.333,117.333,117.333
	c29.917,0,59.229-12.135,80.375-33.292l183.167-183.167c4.167-4.167,4.167-10.917,0-15.083l-3.125-3.125l88.458-88.458
	C470.375,142.042,470.375,135.292,466.208,131.125z"/>
<g>
</g>
<g>
</g>
<g>
</g>
<g>
</g>
<g>
</g>
<g>
</g>
<g>
</g>
<g>
</g>
<g>
</g>
<g>
</g>
<g>
</g>
<g>
</g>
<g>
</g>
<g>
</g>
<g>
</g>
</svg>
