<?xml version="1.0" encoding="iso-8859-1"?>
<!-- Generator: Adobe Illustrator 19.0.0, SVG Export Plug-In . SVG Version: 6.00 Build 0)  -->
<svg version="1.1" id="Capa_1" xmlns="http://www.w3.org/2000/svg" xmlns:xlink="http://www.w3.org/1999/xlink" x="0px" y="0px"
	 viewBox="0 0 512 512" style="enable-background:new 0 0 512 512;" xml:space="preserve">
<path style="fill:#303C42;" d="M380.603,386.138c53.635-38.785,88.73-101.703,88.73-172.805C469.333,95.698,373.635,0,256,0
	S42.667,95.698,42.667,213.333c0,71.102,35.095,134.02,88.73,172.805L76.5,439.167c-8.063,8.063-12.5,18.771-12.5,30.167
	C64,492.865,83.135,512,106.667,512c25.188,0,44.26-4.698,64.448-9.677c23.229-5.729,47.26-11.656,84.885-11.656
	s61.656,5.927,84.885,11.656c20.188,4.979,39.26,9.677,64.448,9.677C428.865,512,448,492.865,448,469.333
	c0-11.396-4.438-22.104-12.635-30.292L380.603,386.138z"/>
<path style="fill:#CCCCCC;" d="M64,213.333c0-105.865,86.135-192,192-192s192,86.135,192,192s-86.135,192-192,192
	S64,319.198,64,213.333z"/>
<path style="fill:#B3B3B3;" d="M405.333,490.667c-22.594,0-39.625-4.198-59.344-9.063c-23.323-5.75-49.771-12.271-89.99-12.271
	s-66.667,6.521-89.99,12.271c-19.719,4.865-36.75,9.063-59.344,9.063c-11.76,0-21.333-9.573-21.333-21.333
	c0-5.698,2.219-11.052,6.115-14.958l58.298-56.32c31.327,18.091,67.549,28.612,106.254,28.612
	c38.703,0,74.926-10.521,106.253-28.612l58.164,56.195c4.031,4.031,6.25,9.385,6.25,15.083
	C426.667,481.094,417.094,490.667,405.333,490.667z"/>
<circle style="fill:#303C42;" cx="256" cy="213.333" r="149.333"/>
<circle style="fill:#37474F;" cx="256" cy="213.333" r="128"/>
<circle style="fill:#303C42;" cx="256" cy="213.333" r="106.667"/>
<circle style="fill:#5C6671;" cx="256" cy="213.333" r="85.333"/>
<circle style="fill:#37474F;" cx="256" cy="213.333" r="85.333"/>
<g>
	<path style="opacity:0.1;fill:#FFFFFF;enable-background:new    ;" d="M170.667,213.333c0,10.389,2.139,20.226,5.552,29.441
		c22.757,11.253,56.401-1.625,78.313-31.471c21.293-29.002,24.061-63.845,8.104-82.634c-2.227-0.175-4.363-0.67-6.635-0.67
		C208.944,128,170.667,166.278,170.667,213.333z"/>
	<path style="opacity:0.13;fill:#FFFFFF;enable-background:new    ;" d="M291.699,267.552c-7.935-5.825-9.622-17.057-3.761-25.04
		c5.86-7.982,17.082-9.737,25.016-3.911c7.935,5.825,6.025,14.416,0.164,22.398C307.258,268.982,299.633,273.378,291.699,267.552z"
		/>
	<circle style="opacity:0.05;fill:#FFFFFF;enable-background:new    ;" cx="256" cy="213.333" r="28.437"/>
</g>
<path style="opacity:0.1;enable-background:new    ;" d="M184.889,227.556c0-47.056,38.278-85.333,85.333-85.333
	c19.901,0,37.991,7.128,52.521,18.59C307.104,140.988,283.155,128,256,128c-47.056,0-85.333,38.278-85.333,85.333
	c0,27.155,12.988,51.104,32.813,66.743C192.017,265.547,184.889,247.457,184.889,227.556z"/>
<g style="opacity:0.05;">
	<path style="fill:#FFFFFF;" d="M247.635,171.512l-2.788-13.939c-11.217,2.24-21.264,7.76-29.056,15.552l10.052,10.052
		C231.689,177.332,239.224,173.191,247.635,171.512z"/>
	<path style="fill:#FFFFFF;" d="M218,194.333L205.333,188c-3.851,7.663-6.222,16.188-6.222,25.333h14.222
		C213.333,206.474,215.111,200.082,218,194.333z"/>
	<path style="opacity:0.2;fill:#FFFFFF;enable-background:new    ;" d="M247.635,171.512l-2.788-13.939
		c-11.217,2.24-21.264,7.76-29.056,15.552l10.052,10.052C231.689,177.332,239.224,173.191,247.635,171.512z"/>
	<path style="opacity:0.2;fill:#FFFFFF;enable-background:new    ;" d="M218,194.333L205.333,188
		c-3.851,7.663-6.222,16.188-6.222,25.333h14.222C213.333,206.474,215.111,200.082,218,194.333z"/>
</g>
<linearGradient id="SVGID_1_" gradientUnits="userSpaceOnUse" x1="-37.1723" y1="630.3382" x2="-28.8016" y2="621.9716" gradientTransform="matrix(21.3333 0 0 -21.3333 996.3334 13791.667)">
	<stop  offset="0" style="stop-color:#000000;stop-opacity:0.1"/>
	<stop  offset="1" style="stop-color:#000000;stop-opacity:0"/>
</linearGradient>
<path style="fill:url(#SVGID_1_);" d="M256,469.333c40.219,0,66.667,6.521,89.99,12.271c19.719,4.865,36.75,9.063,59.344,9.063
	c11.76,0,21.333-9.573,21.333-21.333c0-5.698-2.219-11.052-6.25-15.083l-58.164-56.195c-31.327,18.091-67.549,28.612-106.253,28.612
	c-38.704,0-74.927-10.521-106.254-28.612l72.957,72.957C232.753,469.996,243.668,469.333,256,469.333z"/>
<linearGradient id="SVGID_2_" gradientUnits="userSpaceOnUse" x1="-44.9986" y1="638.0665" x2="-23.7774" y2="628.1708" gradientTransform="matrix(21.3333 0 0 -21.3333 996.3334 13791.667)">
	<stop  offset="0" style="stop-color:#FFFFFF;stop-opacity:0.2"/>
	<stop  offset="1" style="stop-color:#FFFFFF;stop-opacity:0"/>
</linearGradient>
<path style="fill:url(#SVGID_2_);" d="M380.603,386.138c53.635-38.785,88.73-101.703,88.73-172.805C469.333,95.698,373.635,0,256,0
	S42.667,95.698,42.667,213.333c0,71.102,35.095,134.02,88.73,172.805L76.5,439.167c-8.063,8.063-12.5,18.771-12.5,30.167
	C64,492.865,83.135,512,106.667,512c25.188,0,44.26-4.698,64.448-9.677c23.229-5.729,47.26-11.656,84.885-11.656
	s61.656,5.927,84.885,11.656c20.188,4.979,39.26,9.677,64.448,9.677C428.865,512,448,492.865,448,469.333
	c0-11.396-4.438-22.104-12.635-30.292L380.603,386.138z"/>
<g>
</g>
<g>
</g>
<g>
</g>
<g>
</g>
<g>
</g>
<g>
</g>
<g>
</g>
<g>
</g>
<g>
</g>
<g>
</g>
<g>
</g>
<g>
</g>
<g>
</g>
<g>
</g>
<g>
</g>
</svg>
